<svg width="1920" height="1080" viewBox="0 0 1920 1080" fill="none" xmlns="http://www.w3.org/2000/svg">
  <defs>
    <linearGradient id="roomBg" x1="0" y1="0" x2="1920" y2="1080" gradientUnits="userSpaceOnUse">
      <stop stop-color="#C8C9C7"/>
      <stop offset="0.4" stop-color="#D7D5D0"/>
      <stop offset="1" stop-color="#8A7A61"/>
    </linearGradient>
    <linearGradient id="glassRoom" x1="0" y1="0" x2="1" y2="1">
      <stop stop-color="#F3F4F3" stop-opacity="0.92"/>
      <stop offset="1" stop-color="#BFC1BE" stop-opacity="0.76"/>
    </linearGradient>
    <linearGradient id="tableWood" x1="960" y1="660" x2="960" y2="1080" gradientUnits="userSpaceOnUse">
      <stop stop-color="#7E5634"/>
      <stop offset="1" stop-color="#3D281C"/>
    </linearGradient>
    <radialGradient id="lightRoom" cx="0" cy="0" r="1" gradientUnits="userSpaceOnUse" gradientTransform="translate(1484 206) rotate(90) scale(360 420)">
      <stop stop-color="#FFF8E7" stop-opacity="0.94"/>
      <stop offset="1" stop-color="#FFF8E7" stop-opacity="0"/>
    </radialGradient>
  </defs>

  <rect width="1920" height="1080" fill="url(#roomBg)"/>
  <rect x="0" y="0" width="240" height="1080" fill="#B6B6B2"/>
  <rect x="264" y="0" width="132" height="1080" fill="#D9D8D4"/>
  <rect x="428" y="0" width="110" height="1080" fill="#A8A9A4"/>
  <rect x="562" y="0" width="182" height="1080" fill="#C6C6C1"/>
  <rect x="780" y="0" width="120" height="1080" fill="#DAD9D5"/>
  <rect x="936" y="0" width="110" height="1080" fill="#ACACA8"/>
  <rect x="1076" y="0" width="210" height="1080" fill="#D5D3CC"/>
  <rect x="1312" y="0" width="114" height="1080" fill="#B4B1AA"/>
  <rect x="1458" y="0" width="462" height="1080" fill="#A89266"/>

  <ellipse cx="1312" cy="816" rx="522" ry="102" fill="#1A2230" opacity="0.24"/>
  <path d="M1010 1080L1190 736H1730L1914 1080H1010Z" fill="url(#tableWood)"/>
  <path d="M1092 742H1706L1842 1080H1170L1092 742Z" fill="#6A452B" opacity="0.68"/>

  <circle cx="1122" cy="724" r="108" fill="#F2F2EE"/>
  <ellipse cx="1122" cy="816" rx="120" ry="162" fill="#F4F4F2"/>
  <path d="M1038 734C1062 690 1102 672 1142 674C1176 676 1202 700 1214 736" stroke="#14171C" stroke-width="24" stroke-linecap="round"/>
  <rect x="1012" y="786" width="218" height="218" rx="108" fill="#F7F8F8"/>

  <circle cx="1364" cy="734" r="86" fill="#C7D9F4"/>
  <ellipse cx="1364" cy="836" rx="136" ry="184" fill="#1B4E84"/>
  <rect x="1292" y="770" width="144" height="84" rx="28" fill="#F7F7F7"/>

  <circle cx="1634" cy="742" r="84" fill="#11161F"/>
  <ellipse cx="1634" cy="848" rx="124" ry="176" fill="#161B25"/>
  <path d="M1560 816L1708 814" stroke="#0A0F18" stroke-width="26" stroke-linecap="round"/>

  <rect x="1234" y="812" width="238" height="22" rx="11" fill="#D0A65C"/>
  <rect x="1234" y="856" width="206" height="18" rx="9" fill="#E8E3D7" opacity="0.76"/>
  <rect x="1234" y="896" width="172" height="18" rx="9" fill="#E8E3D7" opacity="0.66"/>

  <rect x="1478" y="856" width="74" height="20" rx="10" fill="#E5D8BE"/>
  <rect x="1558" y="856" width="94" height="20" rx="10" fill="#72859C"/>
  <rect x="1478" y="898" width="142" height="18" rx="9" fill="#73859A"/>

  <circle cx="1488" cy="238" r="328" fill="url(#lightRoom)"/>
  <circle cx="1708" cy="228" r="8" fill="#F2D8A0"/>
  <circle cx="1742" cy="262" r="5" fill="#F2D8A0" opacity="0.74"/>
</svg>
